# xmcd
#
# Track frame offsets: 
#        150
#        3745
#        24520
#        41012
#        58142
#        73892
#        91907
#        112630
#        135917
#        142817
#        166397
#        185897
#        197732
#        213410
#        267833
#        286568
#        305194
#        318176
#        330989
#
# Disc length: 4663 seconds
#
# Revision: 2
# Processed by: cddbd v1.5.2PL0 Copyright (c) Steve Scherf et al.
# Submitted via: ExactAudioCopy v1.3
#
DISCID=0c123513
DTITLE=Marius Müller - Solo 1981-1995 CD6 Seks
DYEAR=1995
DGENRE=Rock
TTITLE0=Blå #2
TTITLE1=Våkn opp
TTITLE2=Som 1 reise
TTITLE3=Bless
TTITLE4=Duett i E-dur
TTITLE5=Snapp
TTITLE6=Den grønne drømmen
TTITLE7=Mias sang
TTITLE8=Sunburst shuffle
TTITLE9=Destiny
TTITLE10=Sull
TTITLE11=Ate Quem Sabé
TTITLE12=The Fens (med Terje Gewelt, Billy Cobham og Palle Wagnberg) (
TTITLE12=bonusspor)
TTITLE13=Goodbye porkpie hat (live) (bonusspor)
TTITLE14=Alison (med Henning Kvitnes) (live) (bonusspor)
TTITLE15=Boom Boom (live) (bonusspor)
TTITLE16=(Bli hos meg) i natt (live) (bonusspor)
TTITLE17=Knocking on heavens door (live) (bonusspor)
TTITLE18=Den siste låta (med Hilde Heltberg) (bonusspor)
EXTD=
EXTT0=
EXTT1=
EXTT2=
EXTT3=
EXTT4=
EXTT5=
EXTT6=
EXTT7=
EXTT8=
EXTT9=
EXTT10=
EXTT11=
EXTT12=
EXTT13=
EXTT14=
EXTT15=
EXTT16=
EXTT17=
EXTT18=
PLAYORDER=
